<svg xmlns="http://www.w3.org/2000/svg" width="166" height="166" viewBox="0 0 166 166" fill="none">
  <g opacity="0.06">
    <path d="M158.155 73.2198L144.889 51.9926L88.7809 31.3221C87.2626 30.7619 85.5957 30.7619 84.0775 31.3221L27.973 51.9926L14.7068 73.2198C13.5967 74.9974 14.3402 77.3422 16.27 78.1549L27.973 83.083V133.398C27.973 136.248 29.7506 138.797 32.4239 139.779L84.081 158.81C85.5992 159.37 87.2661 159.37 88.7843 158.81L140.441 139.779C143.115 138.793 144.892 136.248 144.892 133.398V83.083L156.595 78.1549C158.522 77.3422 159.265 74.9974 158.155 73.2198Z" fill="#FEA919"/>
    <path d="M83 150.268V97.6426M40.9847 31.2011L22.1333 38.1454M22.1333 38.1454L83 60.5692M22.1333 38.1454L8.32076 60.2476C7.16567 62.0978 7.94034 64.5429 9.94963 65.3867L64.0553 88.1702C65.7222 88.8688 67.6485 88.2048 68.5234 86.6243L83 60.5692M143.867 38.1454L85.4485 16.6242C83.868 16.0432 82.1319 16.0432 80.5515 16.6242L64.114 22.6797M143.867 38.1454L83 60.5692M143.867 38.1454L157.679 60.2476C158.834 62.0978 158.06 64.5429 156.05 65.3867L128.698 76.9029M83 60.5692L97.4766 86.6278C98.3515 88.2048 100.278 88.8722 101.945 88.1702L111.14 84.2969M143.867 92.3444V122.906C143.867 125.873 142.016 128.525 139.232 129.549L85.4485 149.365C83.868 149.946 82.132 149.946 80.5515 149.365L26.7675 129.549C23.9835 128.522 22.1333 125.873 22.1333 122.906V91.3138" stroke="#18193F" stroke-width="6" stroke-miterlimit="10" stroke-linecap="round" stroke-linejoin="round"/>
  </g>
</svg>