<svg width="162" height="161" viewBox="0 0 162 161" fill="none" xmlns="http://www.w3.org/2000/svg">
<path d="M161 80.0002C161 66.6955 157.682 53.6009 151.346 41.9018C145.01 30.2027 135.856 20.2686 124.713 12.9988L97.3924 54.8746C101.571 57.6008 105.004 61.3261 107.38 65.7133C109.756 70.1004 111 75.0109 111 80.0002H161Z" fill="#956F00" stroke="white"/>
<path d="M71.3285 1.09064C89.7663 -1.16918 108.408 3.09928 124.02 13.1456L97.2446 54.1861C91.3086 50.4506 84.2611 48.8722 77.2896 49.7267C70.318 50.5812 63.8603 53.8148 59.0022 58.8733L23.1079 25.5139C35.8318 11.9945 52.8907 3.35046 71.3285 1.09064Z" fill="#E5A500" stroke="white"/>
<path d="M22.4001 25.5387C9.14921 39.7965 1.551 58.3963 1.02882 77.854C0.506635 97.3116 7.0963 116.292 19.5634 131.24L57.9613 99.2152C53.2861 93.6097 50.815 86.492 51.0108 79.1953C51.2066 71.8987 54.056 64.9238 59.0251 59.5771L22.4001 25.5387Z" fill="#FFC879" stroke="white"/>
<path d="M23.6392 80.3382V79.1791L27.3764 73.2728H28.3182V74.9518H27.7344L25.1392 79.0598V79.1279H30.3082V80.3382H23.6392ZM27.7855 82.0001V79.9845L27.8026 79.4603V73.2728H29.1705V82.0001H27.7855ZM34.8594 82.1535C34.1747 82.1535 33.5866 81.976 33.0952 81.6208C32.6065 81.2657 32.2315 80.7515 31.9702 80.0782C31.7088 79.4049 31.5795 78.5924 31.5824 77.6407C31.5824 76.6919 31.7131 75.8836 31.9744 75.216C32.2358 74.5456 32.6108 74.0342 33.0994 73.6819C33.5909 73.3297 34.1776 73.1535 34.8594 73.1535C35.544 73.1535 36.1307 73.3297 36.6193 73.6819C37.1108 74.0342 37.4872 74.5456 37.7486 75.216C38.0099 75.8865 38.1406 76.6947 38.1406 77.6407C38.1406 78.5953 38.0099 79.4092 37.7486 80.0825C37.4872 80.7558 37.1122 81.27 36.6236 81.6251C36.1349 81.9774 35.5469 82.1535 34.8594 82.1535ZM34.8594 80.922C35.4276 80.922 35.875 80.6436 36.2017 80.0868C36.5284 79.5271 36.6903 78.7118 36.6875 77.6407C36.6875 76.9333 36.6136 76.3368 36.4659 75.851C36.3182 75.3652 36.108 74.9973 35.8352 74.7473C35.5625 74.4973 35.2372 74.3723 34.8594 74.3723C34.2969 74.3723 33.8523 74.6521 33.5256 75.2118C33.1989 75.7686 33.0355 76.5782 33.0355 77.6407C33.0327 78.3538 33.1051 78.9547 33.2528 79.4433C33.4006 79.9291 33.6108 80.297 33.8835 80.547C34.1563 80.797 34.4815 80.922 34.8594 80.922Z" fill="#4A4A4A"/>
<path d="M19.5634 131.24C29.7191 143.417 43.264 152.301 58.4785 156.765L72.5544 108.787C66.849 107.113 61.7697 103.781 57.9613 99.2152L19.5634 131.24Z" fill="#FFDDB6" stroke="white"/>
<path d="M58.4785 156.765C70.406 160.264 82.9849 160.936 95.2174 158.727C107.45 156.518 118.999 151.488 128.949 144.038C138.899 136.588 146.977 126.921 152.54 115.806C158.103 104.69 161 92.4305 161 80.0002H111C111 84.6615 109.914 89.2588 107.828 93.4272C105.741 97.5956 102.712 101.221 98.981 104.014C95.2497 106.808 90.9187 108.694 86.3315 109.523C81.7444 110.351 77.0273 110.099 72.5544 108.787L58.4785 156.765Z" fill="#5E4200" stroke="white"/>
</svg>
