<svg xmlns="http://www.w3.org/2000/svg" width="56" height="56" viewBox="0 0 56 56" fill="none">
  <path fill-rule="evenodd" clip-rule="evenodd" d="M19.5315 9.8C15.7147 9.8 12.474 12.596 11.9146 16.3716L10.0645 28.8598C9.8884 30.0485 9.79999 31.2486 9.79999 32.4503V37.1C9.79999 42.1258 13.8742 46.2 18.9 46.2H37.1C42.1258 46.2 46.2 42.1258 46.2 37.1V32.4503C46.2 31.2486 46.1116 30.0485 45.9355 28.8598L44.0854 16.3716C43.526 12.596 40.2853 9.8 36.4685 9.8H19.5315ZM16.0693 16.9871C16.3235 15.2709 17.7966 14 19.5315 14H36.4685C38.2034 14 39.6765 15.2709 39.9307 16.9871L41.5623 28H34.6091C33.1025 28 31.7651 28.964 31.2887 30.3932L30.8459 31.7214C30.7507 32.0072 30.4832 32.2 30.1819 32.2H25.8181C25.5168 32.2 25.2493 32.0072 25.154 31.7214L24.7113 30.3932C24.2349 28.964 22.8974 28 21.3909 28H14.4377L16.0693 16.9871ZM14.0015 32.2C14.0005 32.2834 14 32.3668 14 32.4503V37.1C14 39.8062 16.1938 42 18.9 42H37.1C39.8062 42 42 39.8062 42 37.1V32.4503C42 32.3668 41.9995 32.2834 41.9984 32.2H35.1136L34.8304 33.0495C34.1635 35.0504 32.291 36.4 30.1819 36.4H25.8181C23.709 36.4 21.8365 35.0504 21.1696 33.0495L20.8864 32.2H14.0015Z" fill="#4A4A4A"/>
</svg>