<svg xmlns="http://www.w3.org/2000/svg" width="48" height="48" viewBox="0 0 48 48" fill="none">
  <path fill-rule="evenodd" clip-rule="evenodd" d="M33.3 21.6C33.3 26.4601 29.3601 30.4 24.5 30.4C19.6399 30.4 15.7 26.4601 15.7 21.6C15.7 16.7399 19.6399 12.8 24.5 12.8C29.3601 12.8 33.3 16.7399 33.3 21.6ZM28.9 21.6C28.9 24.0301 26.9301 26 24.5 26C22.0699 26 20.1 24.0301 20.1 21.6C20.1 19.1699 22.0699 17.2 24.5 17.2C26.9301 17.2 28.9 19.1699 28.9 21.6Z" fill="#4A4A4A"/>
  <path fill-rule="evenodd" clip-rule="evenodd" d="M24.5 4C17.2357 4 11.7445 7.60732 8.13976 11.4277C6.33527 13.3401 4.9645 15.3433 4.03497 17.0664C3.57031 17.9278 3.20321 18.7427 2.94659 19.4636C2.70953 20.1296 2.5 20.8966 2.5 21.6C2.5 22.3034 2.70953 23.0704 2.94659 23.7364C3.20321 24.4573 3.57031 25.2722 4.03497 26.1336C4.9645 27.8567 6.33527 29.8599 8.13976 31.7723C11.7445 35.5927 17.2357 39.2 24.5 39.2C31.7643 39.2 37.2555 35.5927 40.8602 31.7723C42.6647 29.8599 44.0355 27.8567 44.965 26.1336C45.4297 25.2722 45.7968 24.4573 46.0534 23.7364C46.2905 23.0704 46.5 22.3034 46.5 21.6C46.5 20.8966 46.2905 20.1296 46.0534 19.4636C45.7968 18.7427 45.4297 17.9278 44.965 17.0664C44.0355 15.3433 42.6647 13.3401 40.8602 11.4277C37.2555 7.60732 31.7643 4 24.5 4ZM6.90414 21.6061L6.90301 21.6L6.90414 21.5939C6.91493 21.5358 6.9536 21.3274 7.09183 20.9391C7.25988 20.467 7.52838 19.8581 7.90745 19.1554C8.66538 17.7504 9.81455 16.0641 11.34 14.4473C14.3952 11.2093 18.804 8.4 24.5 8.4C30.196 8.4 34.6048 11.2093 37.66 14.4473C39.1854 16.0641 40.3346 17.7504 41.0926 19.1554C41.4716 19.8581 41.7401 20.467 41.9082 20.9391C42.0464 21.3274 42.0851 21.5358 42.0959 21.5939L42.097 21.6L42.0959 21.6061C42.0851 21.6642 42.0464 21.8726 41.9082 22.2609C41.7401 22.733 41.4716 23.3419 41.0926 24.0446C40.3346 25.4496 39.1854 27.1359 37.66 28.7527C34.6048 31.9907 30.196 34.8 24.5 34.8C18.804 34.8 14.3952 31.9907 11.34 28.7527C9.81455 27.1359 8.66538 25.4496 7.90745 24.0446C7.52838 23.3419 7.25988 22.733 7.09183 22.2609C6.9536 21.8726 6.91493 21.6642 6.90414 21.6061Z" fill="#4A4A4A"/>
</svg>